<!-- Generated by IcoMoon.io -->
<svg version="1.1" xmlns="http://www.w3.org/2000/svg" width="1024" height="1024" viewBox="0 0 1024 1024">
<title></title>
<g id="icomoon-ignore">
</g>
<path d="M358.4 224c-118.65 0-219.733 88.717-219.733 203.938 0 79.488 37.22 146.406 86.549 201.839 49.159 55.245 112.583 101.615 169.919 140.425l98.928 66.965c10.833 7.334 25.041 7.334 35.874 0l98.927-66.965c57.34-38.81 120.759-85.18 169.92-140.425 49.331-55.433 86.549-122.351 86.549-201.839 0-115.221-101.082-203.938-219.733-203.938-61.163 0-114.978 28.678-153.6 65.785-38.622-37.107-92.439-65.785-153.6-65.785z"></path>
</svg>
