<svg width="153" height="40" viewBox="0 0 153 40" fill="none" xmlns="http://www.w3.org/2000/svg">
<path d="M20 40C31.0457 40 40 31.0457 40 20C40 8.9543 31.0457 0 20 0C8.9543 0 0 8.9543 0 20C0 31.0457 8.9543 40 20 40Z" fill="#FF4869"/>
<path d="M20.4882 10.0734C21.0678 10.1982 21.5535 10.4638 21.9294 10.8619C23.2766 12.2597 22.838 14.5397 21.0599 15.3517C20.6605 15.5313 20.488 15.5625 19.9241 15.5625C19.3602 15.5625 19.1878 15.5313 18.7884 15.3517C16.3679 14.2429 16.6814 10.7371 19.2583 10.0968C19.7675 9.97195 19.9789 9.97195 20.488 10.0734L20.4882 10.0734ZM13.36 12.8064C13.9396 12.9312 14.4253 13.1968 14.8012 13.5949C15.8742 14.7036 15.843 16.4839 14.7385 17.5303C13.6497 18.5765 11.9421 18.5765 10.8533 17.5303C9.27111 16.0311 9.9995 13.353 12.13 12.8297C12.6392 12.7049 12.8506 12.7049 13.3597 12.8063L13.36 12.8064ZM27.7732 12.8064C28.3528 12.9312 28.8385 13.1968 29.2144 13.5949C30.2874 14.7036 30.2562 16.4839 29.1517 17.5303C28.0629 18.5765 26.3553 18.5765 25.2665 17.5303C23.6843 16.0311 24.4127 13.353 26.5432 12.8297C27.0524 12.7049 27.2638 12.7049 27.7729 12.8063L27.7732 12.8064ZM20.7863 18.5377C23.4965 18.7562 25.9326 20.0057 27.1234 21.7936C28.1574 23.3239 28.1574 25.2292 27.1234 26.7598C26.1444 28.2278 24.28 29.3677 22.118 29.8283C21.4444 29.9688 21.045 30 19.9247 30C18.8047 30 18.405 29.9688 17.7314 29.8283C12.397 28.6962 10.2353 24.1361 13.478 20.8801C14.4806 19.8808 16.1177 19.0531 17.7314 18.7329C18.593 18.569 19.7757 18.4285 20.0421 18.4674C20.1283 18.483 20.465 18.5142 20.7862 18.5376L20.7863 18.5377Z" fill="white"/>
<path d="M54.2642 27.5V12.9545H63.8949V15.4901H57.3395V18.956H63.2557V21.4915H57.3395V27.5H54.2642ZM65.9066 27.5V16.5909H68.9322V27.5H65.9066ZM67.4265 15.1847C66.9767 15.1847 66.5908 15.0355 66.2688 14.7372C65.9516 14.4342 65.793 14.072 65.793 13.6506C65.793 13.2339 65.9516 12.8764 66.2688 12.5781C66.5908 12.2751 66.9767 12.1236 67.4265 12.1236C67.8763 12.1236 68.2598 12.2751 68.5771 12.5781C68.899 12.8764 69.06 13.2339 69.06 13.6506C69.06 14.072 68.899 14.4342 68.5771 14.7372C68.2598 15.0355 67.8763 15.1847 67.4265 15.1847ZM74.3814 21.1932V27.5H71.3558V16.5909H74.2393V18.5156H74.3672C74.6087 17.8812 75.0135 17.3793 75.5817 17.0099C76.1499 16.6359 76.8388 16.4489 77.6484 16.4489C78.406 16.4489 79.0665 16.6146 79.63 16.946C80.1934 17.2775 80.6314 17.7509 80.9439 18.3665C81.2564 18.9773 81.4126 19.7064 81.4126 20.554V27.5H78.3871V21.0938C78.3918 20.4261 78.2214 19.9053 77.8757 19.5312C77.5301 19.1525 77.0542 18.9631 76.4482 18.9631C76.041 18.9631 75.6811 19.0507 75.3686 19.2259C75.0608 19.401 74.8194 19.6567 74.6442 19.9929C74.4737 20.3243 74.3861 20.7244 74.3814 21.1932ZM87.8171 27.6776C86.9885 27.6776 86.238 27.4645 85.5657 27.0384C84.8981 26.6075 84.3678 25.9754 83.9748 25.142C83.5865 24.304 83.3924 23.2765 83.3924 22.0597C83.3924 20.8097 83.5936 19.7704 83.9961 18.9418C84.3986 18.1084 84.9336 17.4858 85.6012 17.0739C86.2736 16.6572 87.0098 16.4489 87.81 16.4489C88.4208 16.4489 88.9298 16.553 89.337 16.7614C89.7489 16.965 90.0804 17.2206 90.3313 17.5284C90.587 17.8314 90.7811 18.1297 90.9137 18.4233H91.006V12.9545H94.0245V27.5H91.0415V25.7528H90.9137C90.7717 26.0559 90.5704 26.3565 90.31 26.6548C90.0543 26.9484 89.7205 27.1922 89.3086 27.3864C88.9014 27.5805 88.4042 27.6776 87.8171 27.6776ZM88.7759 25.2699C89.2636 25.2699 89.6755 25.1373 90.0117 24.8722C90.3526 24.6023 90.613 24.2259 90.793 23.7429C90.9776 23.2599 91.07 22.6941 91.07 22.0455C91.07 21.3968 90.98 20.8333 90.8001 20.3551C90.6201 19.8769 90.3597 19.5076 90.0188 19.2472C89.6779 18.9867 89.2636 18.8565 88.7759 18.8565C88.2788 18.8565 87.8597 18.9915 87.5188 19.2614C87.1779 19.5312 86.9199 19.9053 86.7447 20.3835C86.5695 20.8617 86.4819 21.4157 86.4819 22.0455C86.4819 22.6799 86.5695 23.241 86.7447 23.7287C86.9246 24.2116 87.1826 24.5904 87.5188 24.8651C87.8597 25.1349 88.2788 25.2699 88.7759 25.2699ZM101.484 27.7131C100.362 27.7131 99.3956 27.4858 98.5859 27.0312C97.781 26.572 97.1607 25.9233 96.7251 25.0852C96.2895 24.2424 96.0717 23.2457 96.0717 22.0952C96.0717 20.973 96.2895 19.9882 96.7251 19.1406C97.1607 18.2931 97.7739 17.6326 98.5646 17.1591C99.3601 16.6856 100.293 16.4489 101.363 16.4489C102.083 16.4489 102.753 16.5649 103.373 16.7969C103.998 17.0241 104.542 17.3674 105.006 17.8267C105.475 18.286 105.84 18.8636 106.1 19.5597C106.361 20.2509 106.491 21.0606 106.491 21.9886V22.8196H97.2791V20.9446H103.643C103.643 20.509 103.548 20.1231 103.359 19.7869C103.169 19.4508 102.906 19.188 102.57 18.9986C102.239 18.8045 101.853 18.7074 101.413 18.7074C100.953 18.7074 100.546 18.8139 100.191 19.027C99.8407 19.2353 99.5661 19.517 99.3672 19.8722C99.1683 20.2225 99.0665 20.6132 99.0618 21.044V22.8267C99.0618 23.3665 99.1612 23.8329 99.3601 24.2259C99.5637 24.6188 99.8501 24.9219 100.219 25.1349C100.589 25.348 101.027 25.4545 101.533 25.4545C101.87 25.4545 102.177 25.4072 102.457 25.3125C102.736 25.2178 102.975 25.0758 103.174 24.8864C103.373 24.697 103.524 24.465 103.629 24.1903L106.427 24.375C106.285 25.0473 105.994 25.6345 105.553 26.1364C105.118 26.6335 104.554 27.0218 103.863 27.3011C103.176 27.5758 102.383 27.7131 101.484 27.7131ZM108.465 27.5V16.5909H111.398V18.4943H111.512C111.711 17.8172 112.045 17.3059 112.513 16.9602C112.982 16.6098 113.522 16.4347 114.133 16.4347C114.284 16.4347 114.448 16.4441 114.623 16.4631C114.798 16.482 114.952 16.508 115.085 16.5412V19.2259C114.942 19.1832 114.746 19.1454 114.495 19.1122C114.244 19.0791 114.014 19.0625 113.806 19.0625C113.361 19.0625 112.963 19.1596 112.613 19.3537C112.267 19.5431 111.993 19.8082 111.789 20.1491C111.59 20.4901 111.491 20.883 111.491 21.3281V27.5H108.465ZM121.335 27.5V12.9545H127.073C128.176 12.9545 129.116 13.1652 129.893 13.5866C130.669 14.0033 131.261 14.5833 131.668 15.3267C132.08 16.0653 132.286 16.9176 132.286 17.8835C132.286 18.8494 132.078 19.7017 131.661 20.4403C131.245 21.179 130.641 21.7543 129.85 22.1662C129.064 22.5781 128.112 22.7841 126.995 22.7841H123.337V20.3196H126.498C127.09 20.3196 127.577 20.2178 127.961 20.0142C128.349 19.8059 128.638 19.5194 128.827 19.1548C129.022 18.7855 129.119 18.3617 129.119 17.8835C129.119 17.4006 129.022 16.9792 128.827 16.6193C128.638 16.2547 128.349 15.973 127.961 15.7741C127.573 15.5705 127.08 15.4688 126.484 15.4688H124.41V27.5H121.335ZM139.023 27.7131C137.901 27.7131 136.935 27.4858 136.125 27.0312C135.32 26.572 134.7 25.9233 134.264 25.0852C133.829 24.2424 133.611 23.2457 133.611 22.0952C133.611 20.973 133.829 19.9882 134.264 19.1406C134.7 18.2931 135.313 17.6326 136.104 17.1591C136.899 16.6856 137.832 16.4489 138.902 16.4489C139.622 16.4489 140.292 16.5649 140.912 16.7969C141.537 17.0241 142.081 17.3674 142.545 17.8267C143.014 18.286 143.379 18.8636 143.639 19.5597C143.9 20.2509 144.03 21.0606 144.03 21.9886V22.8196H134.818V20.9446H141.182C141.182 20.509 141.087 20.1231 140.898 19.7869C140.708 19.4508 140.446 19.188 140.109 18.9986C139.778 18.8045 139.392 18.7074 138.952 18.7074C138.492 18.7074 138.085 18.8139 137.73 19.027C137.38 19.2353 137.105 19.517 136.906 19.8722C136.707 20.2225 136.606 20.6132 136.601 21.044V22.8267C136.601 23.3665 136.7 23.8329 136.899 24.2259C137.103 24.6188 137.389 24.9219 137.759 25.1349C138.128 25.348 138.566 25.4545 139.072 25.4545C139.409 25.4545 139.716 25.4072 139.996 25.3125C140.275 25.2178 140.514 25.0758 140.713 24.8864C140.912 24.697 141.063 24.465 141.168 24.1903L143.966 24.375C143.824 25.0473 143.533 25.6345 143.092 26.1364C142.657 26.6335 142.093 27.0218 141.402 27.3011C140.715 27.5758 139.922 27.7131 139.023 27.7131ZM151.807 16.5909V18.8636H145.237V16.5909H151.807ZM146.729 13.9773H149.754V24.1477C149.754 24.4271 149.797 24.6449 149.882 24.8011C149.967 24.9527 150.086 25.0592 150.237 25.1207C150.393 25.1823 150.573 25.2131 150.777 25.2131C150.919 25.2131 151.061 25.2012 151.203 25.1776C151.345 25.1491 151.454 25.1278 151.53 25.1136L152.006 27.3651C151.854 27.4124 151.641 27.4669 151.366 27.5284C151.092 27.5947 150.758 27.6349 150.365 27.6491C149.636 27.6776 148.997 27.5805 148.447 27.358C147.903 27.1354 147.479 26.7898 147.176 26.321C146.873 25.8523 146.724 25.2604 146.729 24.5455V13.9773Z" fill="white"/>
</svg>
